<svg width="223" height="160" viewBox="0 0 223 160" fill="none" xmlns="http://www.w3.org/2000/svg">
<g clip-path="url(#clip0_1_2)">
<path d="M137.379 39.1209V44.237C146.237 51.6734 151.88 62.8247 151.88 75.2704C151.88 89.5 144.504 102.037 133.376 109.262V71.7417L121.372 65.1282V114.528C120.063 114.861 118.728 115.131 117.373 115.333V39.1457L105.371 32.5283V115.331C104.014 115.13 102.68 114.86 101.37 114.527V6.61478L89.3682 0V109.264C78.2389 102.037 70.8637 89.4987 70.8637 75.2704C70.8637 62.8247 76.5058 51.6734 85.3667 44.237V39.1209C74.1438 47.2175 66.8232 60.4041 66.8232 75.2704C66.8232 99.8336 86.8082 119.819 111.371 119.819C135.936 119.819 155.921 99.8336 155.921 75.2704C155.92 60.4041 148.599 47.2175 137.379 39.1209Z" fill="#283C63"/>
<path d="M0 159.551V132.408H11.9706C15.3809 132.408 18.0255 133.278 19.8698 135.018C21.7142 136.793 22.6189 138.985 22.6189 141.526C22.6189 144.205 21.7142 146.432 19.8698 148.172C18.0255 149.912 15.4157 150.817 11.9706 150.817H6.95967V159.551H0ZM6.95967 145.249H11.5878C14.2673 145.249 15.5897 144.031 15.5897 141.56C15.5897 140.516 15.2765 139.681 14.6153 138.985C13.9541 138.289 12.945 137.976 11.5878 137.976H6.95967V145.249ZM25.4028 149.39C25.4028 154.853 30.031 159.551 35.9119 159.551C37.6866 159.551 39.3569 159.168 40.888 158.403V159.551H46.421L46.3862 139.438H40.7488V140.342C39.2525 139.612 37.617 139.264 35.9119 139.264C30.031 139.264 25.4028 143.961 25.4028 149.39ZM39.3917 152.835C38.4522 153.74 37.3038 154.262 35.9119 154.262C33.1628 154.262 31.0401 151.965 31.0401 149.39C31.0401 146.85 33.1628 144.553 35.9119 144.553C37.3038 144.553 38.4522 145.04 39.3917 145.945C39.9833 146.537 40.7488 147.789 40.7488 148.52V150.295C40.7488 151.026 39.9833 152.209 39.3917 152.835ZM49.2396 139.577C49.2396 146.119 49.2048 152.661 49.2048 159.238V159.551H54.8422V149.251C54.8422 146.745 57.0345 144.553 59.7139 144.553C62.289 144.553 64.3073 146.537 64.5857 148.903C64.6205 149.251 64.5857 149.634 64.5857 149.982L64.6205 152.522V159.482L70.2578 159.551V149.077C70.2578 146.537 68.9703 144.031 67.126 142.256C65.1077 140.308 62.637 139.264 59.7139 139.264C57.974 139.264 56.3037 139.646 54.7726 140.412V139.368H49.2396V139.577ZM73.0417 149.425C73.0417 144.066 77.6003 139.403 83.4464 139.403C89.2577 139.403 93.8163 144.066 93.8163 149.425C93.8163 150.156 93.7467 150.852 93.6075 151.513L79.0966 151.548C79.8622 153.113 81.4629 154.227 83.4464 154.227C84.8035 154.227 86.0215 153.67 86.8566 152.835H93.1899C91.7632 156.628 87.9702 159.482 83.4464 159.482C77.6003 159.482 73.0417 154.958 73.0417 149.564V149.425ZM79.2706 147.024L79.0966 147.511H87.9006L87.6222 147.024C86.787 145.632 85.2907 144.657 83.4464 144.657C81.6021 144.657 80.071 145.632 79.2706 147.024ZM96.6002 159.586H102.237L102.168 132.374H96.635V132.722L96.6002 159.586ZM105.021 159.551L116.018 132.408H122.908L133.869 159.551H126.283L124.091 153.496H114.869L112.607 159.551H105.021ZM117.027 147.859L121.864 147.824L119.463 141.317L117.027 147.859ZM136.653 149.425C136.653 154.888 141.281 159.586 147.162 159.586C148.902 159.586 150.538 159.238 152.034 158.507V159.551H157.671V159.238C157.671 155.967 157.706 152.696 157.706 149.425C157.706 143.892 157.671 138.324 157.671 132.791V132.443H152.138V140.447C150.607 139.681 148.937 139.299 147.162 139.299C141.281 139.299 136.653 143.996 136.653 149.425ZM150.642 152.87C149.702 153.809 148.554 154.297 147.162 154.297C144.413 154.297 142.29 152 142.29 149.425C142.29 146.885 144.413 144.588 147.162 144.588C148.554 144.588 149.702 145.11 150.642 146.015C151.338 146.711 152.034 147.928 152.034 148.833V150.051C152.034 150.956 151.338 152.209 150.642 152.87ZM181.438 139.264C187.981 139.264 189.755 143.509 189.755 148.764V159.551H184.118L184.083 148.555C184.083 146.537 182.935 144.553 181.021 144.553C179.385 144.553 177.959 145.388 177.959 149.251V159.551H172.982V148.59C172.982 146.85 171.417 144.553 169.572 144.553C167.38 144.553 166.092 147.267 166.092 149.251V159.551H160.49V159.238L160.525 139.368H166.058V140.308C167.102 139.646 168.25 139.264 169.572 139.264C172.008 139.264 174.34 140.516 175.418 142.57C176.497 140.447 179.037 139.264 181.438 139.264ZM192.539 135.54C192.539 137.176 193.861 138.637 195.706 138.637C197.515 138.637 198.907 137.176 198.907 135.54C198.907 133.94 197.515 132.374 195.706 132.374C193.861 132.374 192.539 133.94 192.539 135.54ZM192.887 139.403V159.551H198.524V139.403H192.887ZM201.726 139.577C201.726 146.119 201.691 152.661 201.691 159.238V159.551H207.328V149.251C207.328 146.745 209.521 144.553 212.2 144.553C214.775 144.553 216.794 146.537 217.072 148.903C217.107 149.251 217.072 149.634 217.072 149.982L217.107 152.522V159.482L222.744 159.551V149.077C222.744 146.537 221.457 144.031 219.612 142.256C217.594 140.308 215.123 139.264 212.2 139.264C210.46 139.264 208.79 139.646 207.259 140.412V139.368H201.726V139.577Z" fill="#283C63"/>
</g>
<defs>
<clipPath id="clip0_1_2">
<rect width="222.744" height="159.586" fill="white"/>
</clipPath>
</defs>
</svg>
