<svg width="90" height="120" viewBox="0 0 90 120" fill="none" xmlns="http://www.w3.org/2000/svg">
<path d="M71.3787 39.1209V44.237C80.237 51.6734 85.8804 62.8247 85.8804 75.2704C85.8804 89.5 78.5039 102.037 67.3759 109.262V71.7417L55.3717 65.1282V114.528C54.0631 114.861 52.7284 115.131 51.3729 115.333V39.1457L39.3712 32.5283V115.331C38.0144 115.13 36.6797 114.86 35.3698 114.527V6.61478L23.3682 0V109.264C12.2389 102.037 4.86372 89.4987 4.86372 75.2704C4.86372 62.8247 10.5058 51.6734 19.3667 44.237V39.1209C8.14376 47.2175 0.823235 60.4041 0.823235 75.2704C0.823235 99.8336 20.8082 119.819 45.3714 119.819C69.9359 119.819 89.9209 99.8336 89.9209 75.2704C89.9196 60.4041 82.599 47.2175 71.3787 39.1209Z" fill="#283C63"/>
</svg>
